<?xml version="1.0" standalone="no"?>
<!DOCTYPE svg PUBLIC "-//W3C//DTD SVG 20010904//EN"
 "http://www.w3.org/TR/2001/REC-SVG-20010904/DTD/svg10.dtd">
<svg version="1.0" xmlns="http://www.w3.org/2000/svg"
 width="640.000000pt" height="640.000000pt" viewBox="0 0 640.000000 640.000000"
 preserveAspectRatio="xMidYMid meet">

<g transform="translate(0.000000,640.000000) scale(0.100000,-0.100000)"
fill="#000000" stroke="none">
<path d="M2720 4625 c-7 -9 -29 -15 -52 -15 -55 0 -99 -23 -151 -79 -65 -69
-90 -143 -85 -251 3 -56 12 -104 27 -142 26 -66 92 -140 146 -162 50 -21 131
-31 139 -17 4 6 16 11 27 11 33 0 114 47 149 86 34 39 70 108 69 134 0 8 -5 4
-11 -10 -30 -68 -73 -121 -120 -151 -136 -83 -279 -27 -356 139 -23 49 -26 71
-27 152 0 86 3 100 30 154 35 68 70 101 126 117 45 14 59 7 37 -18 -9 -10 -24
-41 -33 -70 -15 -46 -15 -58 -4 -94 8 -23 26 -51 41 -62 24 -18 32 -19 68 -8
50 15 70 50 70 126 0 52 -3 58 -44 99 -40 40 -42 45 -28 60 9 9 11 16 5 16 -6
0 -16 -7 -23 -15z m35 -68 c44 -44 55 -109 29 -164 -17 -33 -23 -38 -54 -38
-30 0 -37 5 -52 35 -10 19 -18 53 -18 74 0 42 35 126 52 126 5 0 25 -15 43
-33z"/>
<path d="M3709 4522 c-19 -17 -64 -94 -118 -202 -93 -185 -130 -232 -155 -197
-13 17 -9 67 9 110 5 11 3 17 -7 17 -8 0 -20 -17 -26 -38 -16 -52 -62 -94 -98
-90 -27 3 -29 6 -28 42 1 24 -2 33 -7 25 -13 -20 -11 17 2 66 20 70 84 118
133 99 27 -10 20 -60 -11 -84 -22 -17 -24 -21 -9 -19 10 2 28 16 39 31 17 23
19 33 11 55 -14 42 -52 51 -105 24 -54 -27 -88 -69 -102 -124 -20 -83 -64
-119 -106 -88 -40 30 -39 88 4 196 8 19 6 18 -17 -2 -28 -27 -81 -32 -72 -8 7
17 -14 75 -26 75 -16 0 -20 -34 -9 -67 8 -24 8 -42 -1 -69 -7 -19 -10 -38 -7
-40 3 -3 10 11 17 30 9 30 16 36 39 36 l27 0 -4 -67 c-3 -59 -1 -72 19 -97 19
-24 27 -27 57 -22 22 3 44 16 57 32 l22 28 6 -26 c7 -25 43 -48 77 -48 10 0
32 11 48 25 l30 25 6 -24 c7 -27 40 -40 67 -25 27 14 31 11 18 -12 -20 -38
-49 -158 -49 -203 0 -82 61 -123 109 -72 27 28 61 115 61 155 0 49 12 91 25
91 8 0 27 11 43 25 l30 25 -1 -49 c-2 -57 21 -91 63 -91 29 0 101 44 139 84
29 31 10 35 -22 5 -12 -12 -36 -32 -54 -46 -105 -81 -136 89 -33 177 l42 36
62 -13 c74 -15 99 -16 91 -3 -3 6 -18 10 -33 10 -15 0 -44 5 -65 11 l-38 10
41 46 c39 45 55 103 29 103 -22 0 -77 -40 -103 -75 -15 -19 -33 -35 -40 -35
-18 0 -81 71 -70 79 21 14 72 88 82 118 8 24 7 36 -4 52 -20 29 -48 26 -85 -7z
m77 -7 c11 -28 -20 -79 -95 -158 -41 -42 -76 -76 -78 -73 -6 6 97 214 114 232
19 18 52 18 59 -1z m144 -154 c0 -15 -83 -111 -97 -111 -25 0 -13 28 32 74 42
44 65 57 65 37z m-187 -66 l38 -43 -25 -49 c-40 -80 -146 -165 -146 -118 0 8
-9 24 -19 34 -11 11 -19 21 -18 23 1 2 -4 -3 -10 -11 -20 -23 -15 -47 11 -64
21 -14 23 -20 15 -67 -11 -70 -35 -151 -52 -174 -11 -14 -21 -17 -42 -12 l-28
7 6 77 c5 74 14 102 92 287 14 33 117 150 135 152 3 1 22 -18 43 -42z m77 -64
c0 -5 -7 -14 -15 -21 -16 -14 -18 -10 -9 14 6 17 24 22 24 7z m-230 -142 c0
-6 -4 -7 -10 -4 -5 3 -10 11 -10 16 0 6 5 7 10 4 6 -3 10 -11 10 -16z"/>
<path d="M3586 4185 c-9 -26 -7 -32 5 -12 6 10 9 21 6 23 -2 3 -7 -2 -11 -11z"/>
<path d="M3296 4235 c-9 -26 -7 -32 5 -12 6 10 9 21 6 23 -2 3 -7 -2 -11 -11z"/>
<path d="M1857 3888 c-82 -142 -144 -320 -173 -502 -13 -82 -13 -108 2 -94 3
3 11 46 19 94 26 161 71 298 147 447 24 45 44 85 46 90 2 4 -1 7 -6 7 -6 0
-21 -19 -35 -42z"/>
<path d="M4410 3926 c0 -2 15 -29 34 -61 76 -125 153 -357 171 -512 4 -35 11
-63 17 -63 21 0 -20 217 -68 358 -26 76 -105 244 -126 269 -10 12 -28 18 -28
9z"/>
<path d="M4235 3498 c-90 -128 -302 -309 -401 -343 -31 -10 -100 -7 -144 7 -8
3 -12 3 -7 1 4 -3 5 -9 1 -14 -3 -5 19 -9 50 -9 31 0 56 -3 56 -7 0 -15 -236
-103 -274 -103 -6 0 -27 9 -47 19 -35 19 -36 19 -65 0 -16 -10 -24 -19 -19
-19 6 0 21 8 35 17 20 14 23 14 18 1 -4 -9 -2 -20 3 -25 12 -12 -169 -39 -332
-51 -107 -8 -118 -10 -145 -36 -40 -38 -65 -50 -174 -81 -98 -28 -256 -101
-331 -153 -48 -33 -105 -89 -98 -96 3 -3 29 6 59 19 30 14 84 36 120 50 42 16
53 23 30 19 -19 -4 -48 -13 -63 -21 -15 -7 -32 -11 -38 -7 -6 3 -24 -3 -40
-15 -37 -27 -38 -18 -1 14 15 14 33 22 40 20 8 -3 10 0 6 6 -4 8 1 9 17 4 16
-4 20 -3 11 3 -11 7 -6 14 20 30 85 51 338 148 352 134 7 -6 -18 -31 -26 -25
-4 2 -6 -2 -3 -9 6 -16 -74 -70 -130 -87 -22 -7 -46 -15 -54 -17 -8 -2 -11 -7
-8 -10 3 -4 39 6 79 22 64 24 84 38 166 121 51 51 103 95 115 97 12 3 96 10
187 16 91 6 179 13 195 16 l30 5 -25 -16 c-28 -18 -18 -16 55 13 28 11 94 32
148 46 53 15 132 44 175 64 42 20 82 38 87 40 33 14 -75 -80 -118 -101 -28
-15 -44 -27 -36 -27 8 0 37 14 63 31 38 23 51 28 60 18 8 -9 8 -10 -3 -4 -10
6 -12 4 -7 -4 10 -16 -17 -46 -74 -82 -25 -16 -42 -29 -37 -29 15 0 85 49 109
78 14 17 35 54 48 84 19 46 32 60 102 107 95 65 216 182 281 273 45 62 56 89
40 88 -5 -1 -30 -33 -58 -72z"/>
<path d="M2510 3484 c0 -10 91 -130 108 -144 4 -3 17 -25 30 -50 12 -25 20
-35 16 -22 -3 12 -1 22 5 22 6 0 11 -5 11 -10 0 -6 35 -47 78 -91 59 -63 71
-80 52 -75 -21 6 -22 5 -7 -4 9 -6 22 -8 27 -5 6 3 10 2 10 -3 0 -8 62 -42 77
-42 3 0 -1 8 -10 18 -9 10 -30 44 -47 75 -44 83 -93 148 -137 183 -68 54 -64
47 15 -33 45 -46 85 -97 97 -123 11 -25 23 -48 28 -51 5 -4 8 -12 6 -18 -6
-16 -106 75 -155 139 -24 31 -44 48 -52 45 -10 -4 -12 0 -8 10 4 10 2 14 -5 9
-7 -4 -10 -1 -7 7 3 8 -9 29 -26 48 -19 21 -25 32 -13 28 48 -19 47 -16 -10
21 -33 22 -66 49 -72 59 -6 10 -11 13 -11 7z"/>
<path d="M2890 3366 c30 -31 60 -56 66 -56 7 0 14 -4 16 -10 2 -6 8 -6 18 0
12 8 12 10 -5 10 l-20 1 20 16 c19 15 19 15 -8 9 -19 -5 -26 -3 -22 4 3 5 0
10 -9 10 -8 0 -36 16 -63 36 l-48 36 55 -56z"/>
<path d="M3025 3320 c27 -12 43 -12 25 0 -8 5 -22 9 -30 9 -10 0 -8 -3 5 -9z"/>
<path d="M3078 3303 c7 -3 16 -2 19 1 4 3 -2 6 -13 5 -11 0 -14 -3 -6 -6z"/>
<path d="M3030 3285 c14 -8 30 -14 35 -14 6 0 -1 6 -15 14 -14 8 -29 14 -35
14 -5 0 1 -6 15 -14z"/>
<path d="M3135 3288 c17 -6 36 -15 43 -21 8 -6 12 -6 12 1 0 10 -53 33 -74 31
-6 0 3 -5 19 -11z"/>
<path d="M3020 3260 c8 -5 20 -10 25 -10 6 0 3 5 -5 10 -8 5 -19 10 -25 10 -5
0 -3 -5 5 -10z"/>
<path d="M3080 3256 c0 -2 7 -7 16 -10 8 -3 12 -2 9 4 -6 10 -25 14 -25 6z"/>
<path d="M3225 3238 c17 -13 67 -56 113 -96 45 -41 82 -70 81 -65 -1 12 -167
156 -197 171 -25 12 -25 12 3 -10z"/>
<path d="M2690 3220 c6 -11 13 -20 16 -20 2 0 0 9 -6 20 -6 11 -13 20 -16 20
-2 0 0 -9 6 -20z"/>
<path d="M3080 3236 c0 -2 8 -10 18 -17 15 -13 16 -12 3 4 -13 16 -21 21 -21
13z"/>
<path d="M3120 3237 c0 -5 77 -62 108 -81 31 -19 7 6 -35 36 -59 42 -73 50
-73 45z"/>
<path d="M3442 3219 c4 -13 108 -49 108 -37 0 4 -6 8 -13 8 -7 0 -29 9 -50 20
-42 23 -50 24 -45 9z"/>
<path d="M3550 3221 c0 -8 86 -41 106 -41 4 0 -14 11 -40 25 -50 27 -66 30
-66 16z"/>
<path d="M3160 3171 c59 -54 139 -107 170 -115 l25 -6 -25 13 c-40 19 -81 48
-135 92 -67 56 -91 66 -35 16z"/>
<path d="M1650 3170 c-23 -23 -24 -33 -10 -61 17 -31 85 -23 90 11 5 33 -1 47
-25 58 -33 15 -32 15 -55 -8z"/>
<path d="M2730 3165 c13 -14 25 -25 27 -25 9 0 -33 49 -41 50 -5 0 1 -11 14
-25z"/>
<path d="M4612 3174 c-41 -29 -23 -84 28 -84 49 0 68 51 32 83 -23 21 -32 21
-60 1z"/>
<path d="M3568 3163 c7 -3 16 -2 19 1 4 3 -2 6 -13 5 -11 0 -14 -3 -6 -6z"/>
<path d="M2566 3145 c4 -8 8 -15 10 -15 2 0 4 7 4 15 0 8 -4 15 -10 15 -5 0
-7 -7 -4 -15z"/>
<path d="M3618 3153 c6 -2 18 -2 25 0 6 3 1 5 -13 5 -14 0 -19 -2 -12 -5z"/>
<path d="M3254 3141 c7 -11 46 -35 46 -28 0 3 -12 12 -26 22 -15 9 -23 12 -20
6z"/>
<path d="M3330 3091 c14 -11 30 -21 35 -21 11 0 -7 14 -40 31 -13 7 -12 3 5
-10z"/>
<path d="M2560 3051 c0 -5 9 -11 20 -14 24 -6 27 8 4 17 -21 8 -24 8 -24 -3z"/>
<path d="M3754 3005 c-27 -19 -45 -35 -41 -35 10 0 97 59 97 65 0 9 -6 5 -56
-30z"/>
<path d="M2620 3020 c8 -5 20 -10 25 -10 6 0 3 5 -5 10 -8 5 -19 10 -25 10 -5
0 -3 -5 5 -10z"/>
<path d="M2690 2991 c0 -8 34 -21 55 -21 11 1 -35 29 -47 30 -5 0 -8 -4 -8 -9z"/>
<path d="M3562 2965 c-28 -12 -248 -225 -233 -225 2 0 29 12 60 26 67 32 238
134 224 134 -5 0 -51 -25 -102 -56 -51 -31 -95 -54 -97 -51 -6 6 83 70 136 97
23 12 40 23 38 26 -6 5 -116 -54 -123 -67 -4 -5 -11 -9 -16 -9 -6 0 2 16 17
35 28 36 77 72 129 92 16 6 23 12 15 12 -8 0 -30 -6 -48 -14z"/>
<path d="M1685 2918 c21 -158 109 -395 203 -545 43 -70 140 -193 201 -256 72
-75 174 -157 196 -157 9 0 -22 32 -69 71 -265 218 -464 565 -511 892 -4 26
-12 47 -17 47 -6 0 -7 -20 -3 -52z"/>
<path d="M2765 2962 c-2 -2 -21 -4 -41 -4 -21 0 -47 -4 -58 -8 -26 -11 40 -11
129 -1 l60 7 -43 5 c-24 2 -45 3 -47 1z"/>
<path d="M3670 2960 c-8 -5 -10 -10 -5 -10 6 0 17 5 25 10 8 5 11 10 5 10 -5
0 -17 -5 -25 -10z"/>
<path d="M4606 2914 c-12 -101 -60 -252 -126 -399 -77 -170 -278 -416 -424
-520 -35 -25 -44 -35 -30 -35 27 0 74 36 173 133 189 186 327 419 394 667 31
111 44 210 30 210 -6 0 -13 -25 -17 -56z"/>
<path d="M2280 2937 c-30 -13 -75 -36 -98 -51 -44 -28 -176 -156 -168 -163 2
-2 31 9 63 26 33 16 85 36 117 45 56 14 82 26 57 26 -17 0 -109 -28 -150 -46
-18 -8 -35 -13 -38 -11 -9 9 121 115 174 142 79 40 190 54 249 33 30 -11 54
-13 72 -8 15 5 25 9 22 10 -16 5 -76 11 -155 15 -78 4 -97 2 -145 -18z"/>
<path d="M3343 2949 c-7 -7 -33 -17 -60 -24 -33 -9 -43 -15 -32 -20 15 -6 119
38 119 50 0 9 -16 5 -27 -6z"/>
<path d="M3641 2929 c8 -4 7 -8 -2 -11 -8 -3 -12 -7 -9 -10 3 -2 20 3 38 12
l33 16 -35 0 c-20 0 -31 -3 -25 -7z"/>
<path d="M2428 2923 c6 -2 18 -2 25 0 6 3 1 5 -13 5 -14 0 -19 -2 -12 -5z"/>
<path d="M2378 2913 c7 -3 16 -2 19 1 4 3 -2 6 -13 5 -11 0 -14 -3 -6 -6z"/>
<path d="M3195 2900 l-30 -8 27 -1 c15 0 30 4 33 9 3 6 5 9 3 9 -2 -1 -16 -5
-33 -9z"/>
<path d="M2438 2879 c-21 -11 -38 -22 -38 -24 0 -5 79 32 89 41 12 11 -18 1
-51 -17z"/>
<path d="M3025 2890 c-12 -19 1 -22 61 -12 55 9 56 10 17 11 -23 0 -48 4 -56
7 -8 3 -18 0 -22 -6z"/>
<path d="M3213 2874 c-18 -8 -33 -19 -33 -24 0 -18 26 -10 50 15 27 28 27 28
-17 9z"/>
<path d="M2328 2833 c6 -2 18 -2 25 0 6 3 1 5 -13 5 -14 0 -19 -2 -12 -5z"/>
<path d="M2278 2823 c6 -2 18 -2 25 0 6 3 1 5 -13 5 -14 0 -19 -2 -12 -5z"/>
<path d="M2618 2703 c7 -3 16 -2 19 1 4 3 -2 6 -13 5 -11 0 -14 -3 -6 -6z"/>
<path d="M2645 1888 c-19 -53 -45 -133 -45 -140 0 -20 19 4 25 33 5 22 11 29
22 25 8 -3 27 -8 41 -11 20 -4 17 -1 -10 11 -33 15 -37 20 -31 43 8 37 9 37
59 19 24 -8 44 -12 44 -8 0 6 -82 40 -97 40 -2 0 -6 -6 -8 -12z"/>
<path d="M3661 1894 c-1 -6 6 -34 15 -63 14 -48 14 -55 -1 -77 -21 -32 -67
-33 -88 -1 -8 13 -20 43 -27 65 -6 23 -15 42 -20 42 -18 0 31 -118 56 -134 51
-34 110 8 102 71 -6 38 -36 117 -37 97z"/>
<path d="M2782 1817 c-29 -30 -30 -89 -2 -117 61 -61 166 21 126 98 -25 49
-87 58 -124 19z m107 -18 c25 -45 -6 -109 -53 -109 -56 0 -83 66 -46 113 29
37 77 35 99 -4z"/>
<path d="M3410 1833 c-27 -10 -50 -47 -50 -81 0 -68 79 -106 131 -63 31 25 33
92 4 120 -22 22 -62 33 -85 24z m74 -35 c22 -31 20 -74 -4 -98 -25 -25 -51
-25 -80 -2 -25 21 -32 81 -11 106 20 24 77 20 95 -6z"/>
<path d="M2966 1788 c-14 -92 -16 -138 -6 -138 5 0 10 14 10 30 0 26 4 30 28
30 23 0 32 -7 46 -36 9 -20 19 -34 22 -31 3 3 -1 18 -10 34 -14 27 -13 31 5
46 43 38 11 97 -54 97 -33 0 -37 -3 -41 -32z m93 -3 c15 -14 7 -50 -12 -58 -7
-2 -27 -2 -45 1 -24 3 -32 9 -28 19 3 8 6 25 6 39 0 21 3 23 33 17 17 -3 38
-11 46 -18z"/>
<path d="M3288 1776 c-12 -25 -25 -46 -29 -46 -3 0 -19 18 -34 40 -15 22 -30
38 -32 36 -3 -3 9 -25 26 -50 17 -24 31 -56 31 -70 0 -14 5 -28 10 -31 6 -4
10 7 10 25 0 17 12 53 26 81 14 28 23 53 20 56 -3 3 -15 -15 -28 -41z"/>
</g>
</svg>
